# xmcd
#
# Track frame offsets:
# 150
# 17180
# 36050
# 51041
# 68414
# 87982
# 102136
# 118714
# 136517
# 151925
#
# Disc length: 2264 seconds
#
#
# Revision: 0
# Processed by: cddbd v1.5.1PL0 Copyright (c) Steve Scherf et al.
# Submitted via: FreeRIP 2.941 
#
DISCID=7008d60a
DTITLE=Agua Turva - Em Carne and Osso
DYEAR=2003
DGENRE=Blues
TTITLE0=I Don't Wanna Live in Hell
TTITLE1=Canção Da Alma De Um Homem
TTITLE2=Até Achar Um Lugar
TTITLE3=All Your Love
TTITLE4=Até A Luz Se Apagar
TTITLE5=Baby Please Don't Drive Me Away
TTITLE6=Não Sinto Tanto Frio
TTITLE7=Mr Fingerman
TTITLE8=Blues Woman
TTITLE9=Don't Let Me Be Misunderstood
EXTD=
EXTT0=
EXTT1=
EXTT2=
EXTT3=
EXTT4=
EXTT5=
EXTT6=
EXTT7=
EXTT8=
EXTT9=
PLAYORDER=
